# xmcd CD database file
#
# Track frame offsets:
#	150
#	24695
#	40357
#	59691
#	81419
#	102464
#	123052
#	135519
#	155124
#	176233
#	205225
#
# Disc length: 3008 seconds
#
# Revision: 0
# Processed by: cddbd v1.5.2PL0 Copyright (c) Steve Scherf et al.
# Submitted via: CDex 1.70beta2
#
DISCID=a10bbe0b
DTITLE=Rita Chiarelli And The TBSO - Uptown Goes Downtown
DYEAR=1900
DGENRE=Blues
TTITLE0=I Can Change
TTITLE1=Back To Blue
TTITLE2=Midnight In Berlin
TTITLE3=Serves You Right
TTITLE4=Reginella
TTITLE5=Loving You
TTITLE6=Baby Please
TTITLE7=If You Were Crying
TTITLE8=The Thrill Is Gone
TTITLE9=Dicinticello Vuje
TTITLE10=You Don't Say
EXTD=
EXTT0=
EXTT1=
EXTT2=
EXTT3=
EXTT4=
EXTT5=
EXTT6=
EXTT7=
EXTT8=
EXTT9=
EXTT10=
PLAYORDER=
